/* XPM */
static char *qbittorrent[] = {
/* columns rows colors chars-per-pixel */
"32 32 188 2",
"   c #2659A7",
".  c #245AAC",
"X  c #295DAC",
"o  c #245DB2",
"O  c #295FB1",
"+  c #2C61AF",
"@  c #3465AD",
"#  c #3C69AB",
"$  c #2C63B5",
"%  c #2C65B9",
"&  c #3266B1",
"*  c #3469B4",
"=  c #3C6BB1",
"-  c #356DBB",
";  c #396FBC",
":  c #426CAA",
">  c #4A72AB",
",  c #5277AB",
"<  c #557AAE",
"1  c #5C7DAD",
"2  c #416EB3",
"3  c #4474B5",
"4  c #4B75B5",
"5  c #4C79B7",
"6  c #4376BD",
"7  c #4778BD",
"8  c #4D7BBC",
"9  c #547CB3",
"0  c #5B7EB2",
"q  c #3C73C1",
"w  c #4176C2",
"e  c #467AC4",
"r  c #4C7FC6",
"t  c #5F82AF",
"y  c #5E81B4",
"u  c #5F87BE",
"i  c #6282AD",
"p  c #6282B1",
"a  c #6A87B1",
"s  c #6788B2",
"d  c #6E8BB4",
"f  c #6285B9",
"g  c #6488BD",
"h  c #6D8DBB",
"j  c #748EB4",
"k  c #7790B6",
"l  c #7C93B7",
"z  c #7392BC",
"x  c #7B94BA",
"c  c #7898BF",
"v  c #4F81C7",
"b  c #4F83CA",
"n  c #5684C2",
"m  c #5A87C2",
"M  c #5486CA",
"N  c #5C8CCC",
"B  c #5C8ED0",
"V  c #608CC8",
"C  c #6B93C6",
"Z  c #6791C9",
"A  c #6C94C8",
"S  c #7396C2",
"D  c #7A97C1",
"F  c #7798C1",
"G  c #7B9BC3",
"H  c #769CCD",
"J  c #7C9EC8",
"K  c #6393D3",
"L  c #6B9BD7",
"P  c #6D9DD9",
"I  c #749FD6",
"U  c #719FD9",
"Y  c #7DA1CF",
"T  c #7AA1D4",
"R  c #75A3DB",
"E  c #7CA6DA",
"W  c #7FAADF",
"Q  c #8197B9",
"!  c #8399BB",
"~  c #8A9EBB",
"^  c #8EA1BD",
"/  c #90A3BF",
"(  c #A6AFB9",
")  c #849FC4",
"_  c #809ECA",
"`  c #8BA2C3",
"'  c #85A6CD",
"]  c #89A9CE",
"[  c #93A6C4",
"{  c #92A8C3",
"}  c #9CACC4",
"|  c #97ADCD",
" . c #99AFCE",
".. c #9DB1CD",
"X. c #83A6D3",
"o. c #8CAED5",
"O. c #85ADDD",
"+. c #8AAEDA",
"@. c #91AED3",
"#. c #8EB1DC",
"$. c #9BB2D6",
"%. c #93B3D9",
"&. c #99B9DB",
"*. c #A4B5CC",
"=. c #AAB7CC",
"-. c #A5B8CF",
";. c #ACB9CE",
":. c #B4BFCF",
">. c #A2B6D3",
",. c #A5B8D1",
"<. c #ABBDD2",
"1. c #A0B7D8",
"2. c #A5BAD8",
"3. c #B0BED0",
"4. c #82ADE0",
"5. c #88AFE0",
"6. c #87B0E1",
"7. c #8EB4E2",
"8. c #94B6E0",
"9. c #96BAE5",
"0. c #9CBCE4",
"q. c #A1BFE4",
"w. c #AFC0DA",
"e. c #B5C1D2",
"r. c #BBC5D3",
"t. c #BFC8D6",
"y. c #B5C4DA",
"u. c #B9C7D9",
"i. c #B7C9DF",
"p. c #BCC9DC",
"a. c #9DC0E5",
"s. c #A3C1E4",
"d. c #AAC5E4",
"f. c #A7C4E9",
"g. c #A8C5E8",
"h. c #AECBED",
"j. c #B6CAE3",
"k. c #B8CCE5",
"l. c #B3CDEB",
"z. c #BCD0E7",
"x. c #B5D1EE",
"c. c #BBD2EE",
"v. c #AFCFF1",
"b. c #B3CEF1",
"n. c #B7D3F1",
"m. c #BCD5F1",
"M. c #C0C9D6",
"N. c #C3CDDB",
"B. c #C6D0DE",
"V. c #CCD4DF",
"C. c #C5D2E5",
"Z. c #CDD6E2",
"A. c #C2D6ED",
"S. c #CAD7E9",
"D. c #C6D9EF",
"F. c #CDD9EA",
"G. c #D0D7E1",
"H. c #D3DAE4",
"J. c #D9DEE6",
"K. c #D4DEEA",
"L. c #C0D7F1",
"P. c #C4DAF2",
"I. c #CBDEF3",
"U. c #DBE0E7",
"Y. c #D7E1EC",
"T. c #DCE2EA",
"R. c #CEE1F4",
"E. c #C7E1FA",
"W. c #CCE3FB",
"Q. c #D3E4F5",
"!. c #DAE6F3",
"~. c #DBE9F7",
"^. c #D1E7FC",
"/. c #D6EAFD",
"(. c #DDEBF9",
"). c #E2E6EC",
"_. c #E5E9EE",
"`. c #E4EBF3",
"'. c #E9EDF2",
"]. c #E3EEF9",
"[. c #EEF1F4",
"{. c #E6F1FD",
"}. c #ECF4FC",
"|. c #F0F3F6",
" X c #F3F6FB",
".X c #F7F8FB",
"XX c #FEFEFE",
"oX c None",
/* pixels */
"oXoXoXoXoXoXoXoXoXoXoXoXoX].~.(.(.~.].}.oXoXoXoXoXoXoXoXoXoXoXoX",
"oXoXoXoXoXoXoXoXoXoXQ.I.!.]. X.X.X X{.~.R.Q.}.oXoXoXoXoXoXoXoXoX",
"oXoXoXoXoXoXoXoXK.m.!..XXXXXXXXXXXXXXXXXXX~.L.R. XoXoXoXoXoXoXoX",
"oXoXoXoXoXoX}.}.C.}.XXXXXXXXXXXXXXXXXXXXXXXX XP.m.].oXoXoXoXoXoX",
"oXoXoXoXoX~.}.'.|.XX.X.X.X.X.X.X.X.X.X.X.X.XXX.XL.x.~.oXoXoXoXoX",
"oXoXoXoXR.R.~.}. X|.|.[.[.[.[.[.[.[.[.[.[.[.|..X Xl.x.~.oXoXoXoX",
"oXoXoXI.c.0.~.[.'.'._._._._._.)._.|..X[._._.'.'.|.!.0.m.(.oXoXoX",
"oXoXoXP.0.c.'.).T.T.U.J.J.J.J.J.U.|.XX'.J.U.T.T.).'.j.a.L.}.oXoX",
"oXoXP.g.#.K.T.H.G.G.Z.V.V.V.H.H.V._.XX).V.Z.Z.G.H.U.H.' h.R.oXoX",
"oXoXc.#...J.V.N.N.M.M.M.M.N.Z.N.t.).XXT.t.t.M.M.N.B.K.{ o.m.{.oX",
"oXP.d.c -.B.N.K.!.!.Y.B.Z.K.r.e.:.U.XXH.r.T.'.'.T.N.N.*.z h.Q.oX",
"oXL.%.d *.N.].}.{.].{.}.}.].;.e.3.J.XX'..XXXXXXXXX|.u.*.i &.P.oX",
"oXm.] s ,.~.{.C.*.*.*.u.].!.=.;.} H.XXXXT.e.=.3.'.XX`...i ] n.{.",
"<.b.J t i.{.S.^ ^ ^ ^ / Q.!.*.[ ~ Z.XXZ.~ ~ ^ ~ } .XXX*.1 G l.~.",
"P.g.G 1 z.{...l Q Q ~ [ Q.Q.[ Q l N.XXN.Q ! ! ! Q `.XX,., z d.Q.",
"P.s.F < k./.` l ~ ~ [ ! I.I.l j d u.XXp.` l k k j H.XX,.> z s.Q.",
"P.s.F 9 l./.D d ! k d d P.P.d a i y.XX<.x ! a a i Z.XX| : z s.Q.",
"P.g.J 9 s./.D 1 d p 1 p L.P.p 1 p p.XX>.p ) p 1 1 Y.XXz > S s.Q.",
"P.h.X.9 %./.@.< y , > < m.m.< , h y.XX .> z 0 > y  X X> 9 J d.~.",
"P.l.o.u A E.L.J f > g d.W.c.9 0 f >.XXw.y 9 : 9 C.XX2.# u ' l.].",
"oXm.8.C 5 #.^.^.m.n.W.m.P.c.g g # >.XXXX.XS.S..XXXF.@ 3 Z %.L.oX",
"oXP.f.Y m 3 T h.n.h.X.4 h.l.5 g : _ C.$.j.'..X!.1.= * n H s.R.oX",
"oXP.c.#.A 8 & & = @   @ h.h.@ @ 5 2 X     @ = @   & 8 Z +.x.].oX",
"oXoXP.f.X.V 7 * + + X + h.h.+ . X X . X X X X + & 6 m E s.I.oXoX",
"oXoXP.c.0.T N 6 - $ o $ v.v.O . . . . . . O $ * 6 n I 8.k.].oXoX",
"oXoXoXP.l.8.T N e ; % % 5.O.$ o o o o o $ % - w M E 9.l.Q.oXoXoX",
"oXoXoXoXP.l.8.E K v w ; % % % % % % % - - q r N E !.(.~.oXoXoXoX",
"oXoXoXoXoXP.l.9.O.R K M e w q q q q w e b B U W d..X].oXoXoXoXoX",
"oXoXoXoXoXoXP.c.s.#.O.E P K B B B B K L R 4.7.0.~. XoXoXoXoXoXoX",
"oXoXoXoXoXoXoXP.P.l.q.8.#.6.4.4.4.4.5.7.9.s.l.D.( oXoXoXoXoXoXoX",
"oXoXoXoXoXoXoXoXoXP.P.c.h.f.q.0.0.s.f.h.c.A.D.oXoXoXoXoXoXoXoXoX",
"oXoXoXoXoXoXoXoXoXoXoXoXP.P.P.A.A.L.P.P.oXoXoXoXoXoXoXoXoXoXoXoX"
};
